<?xml version="1.0" encoding="UTF-8"?>
<svg xmlns="http://www.w3.org/2000/svg" xmlns:xlink="http://www.w3.org/1999/xlink" viewBox="0 0 750 500" class="chicago-skyline">
  <defs>
    <style>
      .cls-1 {
        fill: none;
      }

      .cls-2 {
        fill: #c7e0ff;
      }

      .cls-3 {
        fill: #b0d4ff;
      }

      .cls-4 {
        fill: #003b7d;
      }

      .cls-5 {
        fill: #edf5ff;
      }

      .cls-6 {
        clip-path: url(#clippath-1);
      }

      .cls-7 {
        fill: #001836;
      }

      .cls-8 {
        fill: #fff;
      }

      .cls-9 {
        fill: #4283d1;
      }

      .cls-10 {
        fill: #00418a;
      }

      .cls-11 {
        fill: #001226;
      }

      .cls-12 {
        fill: #002754;
      }

      .cls-13 {
        fill: #0075fa;
      }

      .cls-14 {
        clip-path: url(#clippath);
      }
    </style>
    <clipPath id="clippath">
      <rect class="cls-1" width="750" height="500"/>
    </clipPath>
    <clipPath id="clippath-1">
      <rect class="cls-1" width="750" height="500"/>
    </clipPath>
  </defs>
  <g id="BACKGROUND">
    <g class="cls-14">
      <rect class="cls-8" width="750" height="500"/>
      <circle class="cls-5" cx="375" cy="279.77" r="264"/>
      <g>
        <g>
          <path class="cls-2" d="M697.47,223.44c.67-6.99,6.55-12.46,13.72-12.46,2.89,0,5.57.89,7.79,2.41,1.86-9.8,10.46-17.22,20.81-17.22,8.32,0,15.5,4.81,18.97,11.79,8.07.44,14.48,7.1,14.48,15.28,0,.07,0,.14-.01.21h-75.75Z"/>
          <path class="cls-2" d="M708.89,130.76c-.67-6.99-6.55-12.46-13.72-12.46-2.89,0-5.57.89-7.79,2.41-1.86-9.8-10.46-17.22-20.81-17.22-8.32,0-15.5,4.81-18.97,11.79-8.07.44-14.48,7.1-14.48,15.28,0,.07,0,.14.01.21h75.75Z"/>
          <path class="cls-2" d="M642.98,177.88c-2.48,0-4.77.76-6.67,2.07-1.59-8.39-8.96-14.75-17.81-14.75-5,0-9.52,2.03-12.79,5.31-2.36-1.42-5.13-2.25-8.09-2.25-7.7,0-14.1,5.52-15.48,12.81-1.65-1.13-3.64-1.8-5.79-1.8-5.33,0-9.71,4.07-10.21,9.27h88.6c-.57-5.99-5.61-10.67-11.75-10.67Z"/>
        </g>
        <g>
          <path class="cls-2" d="M60.53,223.44c-.67-6.99-6.55-12.46-13.72-12.46-2.89,0-5.57.89-7.79,2.41-1.86-9.8-10.46-17.22-20.81-17.22-8.32,0-15.5,4.81-18.97,11.79-8.07.44-14.48,7.1-14.48,15.28,0,.07,0,.14.01.21H60.53Z"/>
          <path class="cls-2" d="M49.11,130.76c.67-6.99,6.55-12.46,13.72-12.46,2.89,0,5.57.89,7.79,2.41,1.86-9.8,10.46-17.22,20.81-17.22,8.32,0,15.5,4.81,18.97,11.79,8.07.44,14.48,7.1,14.48,15.28,0,.07,0,.14-.01.21H49.11Z"/>
          <path class="cls-2" d="M115.02,177.88c2.48,0,4.77.76,6.67,2.07,1.59-8.39,8.96-14.75,17.81-14.75,5,0,9.52,2.03,12.79,5.31,2.36-1.42,5.13-2.25,8.09-2.25,7.7,0,14.1,5.52,15.48,12.81,1.65-1.13,3.64-1.8,5.79-1.8,5.33,0,9.71,4.07,10.21,9.27h-88.6c.57-5.99,5.61-10.67,11.75-10.67Z"/>
        </g>
        <path class="cls-2" d="M413.02,190.3c-2.89,0-5.57.89-7.79,2.41-1.86-9.8-10.46-17.22-20.81-17.22-5.84,0-11.12,2.38-14.94,6.2-2.76-1.66-5.99-2.63-9.45-2.63-8.99,0-16.46,6.45-18.08,14.97-1.93-1.32-4.26-2.1-6.77-2.1-6.23,0-11.34,4.75-11.92,10.83h103.48c-.67-6.99-6.55-12.46-13.72-12.46Z"/>
      </g>
    </g>
  </g>
  <g id="OBJECTS">
    <g class="cls-6">
      <g>
        <polygon class="cls-3" points="459.33 300.23 459.33 254.28 454.23 254.28 454.23 245.77 447.08 245.77 447.08 239.98 443.67 239.98 439.25 239.98 435.84 239.98 435.84 245.77 428.7 245.77 428.7 254.28 423.59 254.28 423.59 300.23 414.06 300.23 414.06 394.15 468.87 394.15 468.87 300.23 459.33 300.23"/>
        <polygon class="cls-3" points="532.87 310.78 532.87 269.99 527.76 269.99 527.76 262.43 520.61 262.43 520.61 257.3 517.21 257.3 512.78 257.3 509.38 257.3 509.38 262.43 502.23 262.43 502.23 269.99 497.12 269.99 497.12 310.78 487.59 310.78 487.59 394.15 542.4 394.15 542.4 310.78 532.87 310.78"/>
        <path class="cls-3" d="M669.29,222.87h-8.68v-8.94h-11.74v3.83h-6.38v-3.83h-11.74v8.94h-8.68s.9,87.69,0,88.6c-.23.23,19.13.25,23.23.25h0s.14,0,.38,0h.38c4.1,0,23.46-.03,23.23-.26-.9-.9,0-88.6,0-88.6Z"/>
        <polygon class="cls-3" points="372.22 230.72 372.22 223.43 354.59 223.43 354.59 230.72 339.23 230.72 339.23 436.02 387.57 436.02 387.57 230.72 372.22 230.72"/>
      </g>
      <g>
        <g>
          <path class="cls-9" d="M548.24,277.79c-.1-12.07-.77-23.34-1.79-33.69,1.04-12.36,1.58-25.87,1.28-40.38-.18-8.45-.63-16.52-1.28-24.18v-15.95h-22.45v15.95c-.65,7.66-1.1,15.73-1.28,24.18-.31,14.51.23,28.02,1.28,40.38-1.01,10.36-1.68,21.63-1.79,33.69-.12,14.55.6,27.99,1.79,40.12-.44,5.73-.71,11.83-.77,18.26-.07,8.06.23,15.63.77,22.63l10.71.47v.05l.52-.02.52.02v-.05l10.71-.47c.53-7,.83-14.57.77-22.63-.05-6.43-.33-12.53-.77-18.26,1.19-12.14,1.91-25.58,1.79-40.12Z"/>
          <polygon class="cls-9" points="576.26 272.65 574.81 224.04 573.35 272.65 565.87 272.65 565.87 243.59 538.3 243.59 538.3 434.43 565.87 434.43 584 434.43 584 272.65 576.26 272.65"/>
        </g>
        <rect class="cls-9" x="205.11" y="325.38" width="92.94" height="117.28"/>
        <polygon class="cls-9" points="91.17 284.46 91.17 260.74 78.65 248.12 78.7 248.12 77.3 230.43 75.92 247.92 63.19 260.74 63.19 284.46 57.58 284.46 57.58 426.2 96.78 426.2 96.78 284.46 91.17 284.46"/>
        <polygon class="cls-9" points="726.07 375.88 726.07 363.53 720.93 363.53 720.93 355 716.69 355 716.69 346.47 707.39 346.47 707.39 355 703.16 355 703.16 363.53 698.01 363.53 698.01 375.88 691.28 375.88 691.28 439.23 732.8 439.23 732.8 375.88 726.07 375.88"/>
        <polygon class="cls-9" points="460.09 313.03 460.09 303.6 452.09 294.51 444.6 303.6 444.6 313.03 405.28 313.03 405.28 432.89 474.21 432.89 474.21 313.03 460.09 313.03"/>
        <g>
          <rect class="cls-9" x="-2.55" y="321.6" width="33.02" height="111.8"/>
          <rect class="cls-9" x="12.09" y="313.72" width="12.94" height="8.57"/>
        </g>
        <rect class="cls-9" x="165.79" y="325.38" width="26.04" height="117.28"/>
        <polygon class="cls-9" points="163.7 205.26 161.45 167.97 159.2 205.26 151.23 205.26 151.23 214.26 134.38 214.26 134.38 218.89 134.38 424.91 151.23 424.91 163.74 424.91 167.06 424.91 167.06 205.26 163.7 205.26"/>
        <polygon class="cls-9" points="346.04 254.73 346.04 243.76 341.87 243.76 340.2 243.76 334.96 243.76 333.29 243.76 328.05 243.76 326.38 243.76 321.14 243.76 319.47 243.76 314.23 243.76 312.56 243.76 307.32 243.76 305.65 243.76 300.41 243.76 298.74 243.76 293.5 243.76 291.83 243.76 286.81 243.76 286.81 254.73 282.04 254.73 282.04 261.25 282.04 264.68 282.04 268.71 282.04 272.13 282.04 276.16 282.04 279.59 282.04 283.62 282.04 287.05 282.04 291.08 282.04 294.51 282.04 298.54 282.04 301.97 282.04 306 282.04 309.43 282.04 313.46 282.04 316.89 282.04 320.92 282.04 324.35 282.04 328.38 282.04 331.81 282.04 335.84 282.04 339.26 282.04 343.29 282.04 346.72 282.04 350.75 282.04 354.18 282.04 358.21 282.04 361.64 282.04 365.67 282.04 369.1 282.04 373.13 282.04 376.56 282.04 380.59 282.04 384.02 282.04 388.05 282.04 391.48 282.04 395.51 282.04 398.94 282.04 402.96 282.04 406.39 282.04 410.42 282.04 413.85 282.04 417.88 282.04 421.31 282.04 425.34 282.04 428.77 282.04 437.86 286.81 437.86 290.3 437.86 339.23 437.86 342.72 437.86 350.13 437.86 350.13 428.77 350.13 425.34 350.13 421.31 350.13 417.88 350.13 413.85 350.13 410.42 350.13 406.39 350.13 402.96 350.13 398.94 350.13 395.51 350.13 391.48 350.13 388.05 350.13 384.02 350.13 380.59 350.13 376.56 350.13 373.13 350.13 369.1 350.13 365.67 350.13 361.64 350.13 358.21 350.13 354.18 350.13 350.75 350.13 346.72 350.13 343.29 350.13 339.26 350.13 335.84 350.13 331.81 350.13 328.38 350.13 324.35 350.13 320.92 350.13 316.89 350.13 313.46 350.13 309.43 350.13 306 350.13 301.97 350.13 298.54 350.13 294.51 350.13 291.08 350.13 287.05 350.13 283.62 350.13 279.59 350.13 276.16 350.13 272.13 350.13 268.71 350.13 264.68 350.13 261.25 350.13 254.73 346.04 254.73"/>
        <polygon class="cls-9" points="520.17 435.46 520.17 301.01 513.44 293.36 507.13 301.01 507.13 304.46 504.27 304.46 504.27 301.01 497.54 293.36 491.23 301.01 491.23 304.46 464.17 304.46 464.17 435.46 520.17 435.46"/>
      </g>
      <g>
        <polygon class="cls-10" points="267.74 163.85 267.74 159.09 250.62 159.09 249.02 142.74 247.42 159.09 232.51 159.09 232.51 163.85 219.91 163.85 219.91 440.62 276.6 440.62 276.6 163.85 267.74 163.85"/>
        <rect class="cls-10" x="356.26" y="261.89" width="58.89" height="174.3"/>
        <g>
          <polygon class="cls-10" points="682.72 294.86 682.72 288.7 668.94 288.7 668.94 294.86 660.09 294.86 660.09 437.55 689.7 437.55 689.7 294.86 682.72 294.86"/>
          <polygon class="cls-10" points="656.07 300.36 656.07 293.55 625.18 293.55 625.18 300.36 617.48 300.36 617.48 437.55 663.78 437.55 663.78 300.36 656.07 300.36"/>
          <polygon class="cls-10" points="613.49 295.09 613.49 289.72 597.4 289.72 597.4 295.09 591.79 295.09 591.79 437.04 619.11 437.04 619.11 295.09 613.49 295.09"/>
        </g>
        <polygon class="cls-10" points="752.31 289.62 752.31 268.79 729.42 268.79 729.42 289.62 723.34 289.62 723.34 436.53 758.38 436.53 758.38 289.62 752.31 289.62"/>
        <polygon class="cls-10" points="193.42 232.48 191.62 212.87 189.79 232.96 189.98 232.96 170.72 268.03 170.72 443.35 212.93 443.35 212.93 268.03 193.42 232.48"/>
        <polygon class="cls-10" points="156.6 311.68 156.6 303 115.23 303 115.23 311.68 107.06 311.68 107.06 432.45 164.77 432.45 164.77 311.68 156.6 311.68"/>
        <g>
          <polygon class="cls-10" points="71.06 336.08 51.26 307.85 51.26 327.99 47.71 327.99 47.71 307.85 27.91 336.08 27.91 431.77 41.92 431.77 59.86 431.77 71.06 431.77 71.06 336.08"/>
          <polygon class="cls-4" points="71.06 336.06 51.26 307.85 51.26 327.99 47.71 327.99 47.71 307.85 27.91 336.08 27.91 336.43 50.05 365.68 71.06 336.06"/>
        </g>
        <polygon class="cls-10" points="16.17 276.39 16.17 269.55 -19.66 269.55 -19.66 281.12 -19.49 281.12 -19.49 435.17 16.6 435.17 16.6 276.39 16.17 276.39"/>
        <g>
          <polygon class="cls-10" points="445.87 327.94 429.87 327.94 429.87 332.36 419.83 332.36 419.83 435.17 455.91 435.17 455.91 332.36 445.87 332.36 445.87 327.94"/>
          <polygon class="cls-10" points="486.51 332.36 486.51 327.94 470.51 327.94 470.51 332.36 460.47 332.36 460.47 435.17 496.55 435.17 496.55 332.36 486.51 332.36"/>
        </g>
      </g>
      <g>
        <rect class="cls-12" x="-18.55" y="436.53" width="788.43" height="83.74"/>
        <g>
          <path class="cls-13" d="M387.55,420.69c1.18-19.7,24.5-30.44,41.95-23.32,10.1,3.74,18.68,13.65,18.94,24.34.26,5.45-6.24,8.96-10.64,5.83-9-6.57-17.96-8.68-28.29-6-3.21.79-7.68,2.8-11.73,5.27-4.45,2.75-10.53-.96-10.23-6.12h0Z"/>
          <g>
            <g>
              <polygon class="cls-7" points="102.04 348.55 102.04 344.87 86.04 344.87 86.04 348.55 80 348.55 80 430.4 108.09 430.4 108.09 348.55 102.04 348.55"/>
              <rect class="cls-7" x="62.98" y="392.5" width="28.09" height="37.91"/>
            </g>
            <rect class="cls-7" x="152.51" y="402.83" width="32" height="27.57"/>
            <polygon class="cls-7" points="706.96 399.26 706.96 383.43 688.68 383.43 688.68 430.4 705.13 430.4 706.96 430.4 723.4 430.4 723.4 399.26 706.96 399.26"/>
            <polygon class="cls-7" points="568.81 355.7 558.09 355.7 558.09 351.26 491.96 351.26 491.96 355.7 481.23 355.7 481.23 431.96 487.74 431.96 487.74 432.19 492.34 432.19 492.34 431.96 497.62 431.96 497.62 432.19 502.21 432.19 502.21 431.96 507.49 431.96 507.49 432.19 512.09 432.19 512.09 431.96 533.19 431.96 533.19 432.19 537.79 432.19 537.79 431.96 543.06 431.96 543.06 432.19 547.66 432.19 547.66 431.96 552.94 431.96 552.94 432.19 557.53 432.19 557.53 431.96 568.81 431.96 568.81 355.7"/>
            <g>
              <g>
                <path class="cls-11" d="M33.49,432.04c.02-.25.04-.5.04-.76,0-4.34-3.52-7.85-7.85-7.85-2,0-3.81.75-5.2,1.98-1.18-4.86-5.55-8.48-10.78-8.48-1.23,0-2.4.21-3.5.57-2.48-4.54-7.3-7.62-12.84-7.62-8.08,0-14.63,6.55-14.63,14.63,0,2.76.78,5.33,2.11,7.53h52.66Z"/>
                <path class="cls-11" d="M495.63,427.19c-.92,0-1.75.34-2.38.91-.54-2.23-2.55-3.89-4.94-3.89-.56,0-1.1.09-1.61.26-1.14-2.08-3.35-3.49-5.89-3.49-1.59,0-3.05.56-4.2,1.48-.67-.3-1.41-.47-2.19-.47-2.03,0-3.8,1.13-4.72,2.8-.41-.13-.84-.21-1.29-.21-1.92,0-3.53,1.33-3.96,3.12-.51-.45-1.18-.73-1.91-.73-1.59,0-2.89,1.29-2.89,2.89,0,.09,0,.19.01.28h14.9c.14.35.3.69.5,1.01h24.15c.01-.11.02-.23.02-.35,0-1.99-1.61-3.6-3.6-3.6Z"/>
                <path class="cls-11" d="M559.21,427.19c-.92,0-1.75.34-2.38.91-.54-2.23-2.55-3.89-4.94-3.89-.56,0-1.1.09-1.61.26-1.14-2.08-3.35-3.49-5.89-3.49-1.59,0-3.05.56-4.2,1.48-.67-.3-1.41-.47-2.19-.47-2.03,0-3.8,1.13-4.72,2.8-.41-.13-.84-.21-1.29-.21-1.92,0-3.53,1.33-3.96,3.12-.51-.45-1.18-.73-1.91-.73-1.59,0-2.89,1.29-2.89,2.89,0,.09,0,.19.01.28h14.9c.14.35.3.69.5,1.01h24.15c.01-.11.02-.23.02-.35,0-1.99-1.61-3.6-3.6-3.6Z"/>
                <path class="cls-11" d="M740.74,427.19c-.92,0-1.75.34-2.38.91-.54-2.23-2.55-3.89-4.94-3.89-.56,0-1.1.09-1.61.26-1.14-2.08-3.35-3.49-5.89-3.49-1.59,0-3.05.56-4.2,1.48-.67-.3-1.41-.47-2.19-.47-2.03,0-3.8,1.13-4.72,2.8-.41-.13-.84-.21-1.29-.21-1.92,0-3.53,1.33-3.96,3.12-.51-.45-1.18-.73-1.91-.73-1.59,0-2.89,1.29-2.89,2.89,0,.09,0,.19.01.28h14.9c.14.35.3.69.5,1.01h24.15c.01-.11.02-.23.02-.35,0-1.99-1.61-3.6-3.6-3.6Z"/>
                <path class="cls-11" d="M160.29,431.03c.03-.3.05-.6.05-.91,0-5.31-4.31-9.62-9.62-9.62-1.32,0-2.57.27-3.72.75-2.11-4.1-6.37-6.9-11.29-6.9-2.7,0-5.2.85-7.26,2.28-3.07-3.74-7.73-6.13-12.95-6.13-6.36,0-11.89,3.54-14.72,8.76-1.36-.68-2.9-1.07-4.52-1.07-3.57,0-6.71,1.84-8.54,4.63-1.51-1.21-3.43-1.93-5.51-1.93-4.89,0-8.85,3.96-8.85,8.85,0,.44.04.87.1,1.29h86.83Z"/>
                <path class="cls-11" d="M180.47,429.84c-.02-.26-.04-.53-.04-.8,0-4.7,3.81-8.51,8.51-8.51,1.17,0,2.28.24,3.29.66,1.86-3.62,5.63-6.11,9.99-6.11,2.39,0,4.6.75,6.42,2.02,2.72-3.31,6.84-5.43,11.45-5.43,5.62,0,10.51,3.13,13.02,7.75,1.21-.6,2.56-.94,4-.94,3.16,0,5.94,1.63,7.55,4.09,1.34-1.07,3.03-1.71,4.88-1.71,4.32,0,7.83,3.51,7.83,7.83,0,.39-.04.77-.09,1.14h-76.8Z"/>
              </g>
              <g>
                <path class="cls-11" d="M576,424.76c.24-.48.39-1.02.39-1.6,0-1.3-.69-2.42-1.72-3.05.05-.24.08-.49.08-.74,0-1.98-1.61-3.59-3.59-3.59s-3.59,1.61-3.59,3.59c0,.56.14,1.08.37,1.56-1.24.56-2.11,1.81-2.11,3.27,0,.32.06.63.14.93-.95.65-1.57,1.74-1.57,2.97,0,1.98,1.61,3.59,3.59,3.59h6.67c1.98,0,3.59-1.61,3.59-3.59,0-1.51-.93-2.79-2.24-3.32Z"/>
                <path class="cls-11" d="M600.17,424.76c.24-.48.39-1.02.39-1.6,0-1.3-.69-2.42-1.72-3.05.05-.24.08-.49.08-.74,0-1.98-1.61-3.59-3.59-3.59s-3.59,1.61-3.59,3.59c0,.56.14,1.08.37,1.56-1.24.56-2.11,1.81-2.11,3.27,0,.32.06.63.14.93-.95.65-1.57,1.74-1.57,2.97,0,1.98,1.61,3.59,3.59,3.59h6.67c1.98,0,3.59-1.61,3.59-3.59,0-1.51-.93-2.79-2.24-3.32Z"/>
                <path class="cls-11" d="M624.34,424.76c.24-.48.39-1.02.39-1.6,0-1.3-.69-2.42-1.72-3.05.05-.24.08-.49.08-.74,0-1.98-1.61-3.59-3.59-3.59s-3.59,1.61-3.59,3.59c0,.56.14,1.08.37,1.56-1.24.56-2.11,1.81-2.11,3.27,0,.32.06.63.14.93-.95.65-1.57,1.74-1.57,2.97,0,1.98,1.61,3.59,3.59,3.59h6.67c1.98,0,3.59-1.61,3.59-3.59,0-1.51-.93-2.79-2.24-3.32Z"/>
                <path class="cls-11" d="M648.51,424.76c.24-.48.39-1.02.39-1.6,0-1.3-.69-2.42-1.72-3.05.05-.24.08-.49.08-.74,0-1.98-1.61-3.59-3.59-3.59s-3.59,1.61-3.59,3.59c0,.56.14,1.08.37,1.56-1.24.56-2.11,1.81-2.11,3.27,0,.32.06.63.14.93-.95.65-1.57,1.74-1.57,2.97,0,1.98,1.61,3.59,3.59,3.59h6.67c1.98,0,3.59-1.61,3.59-3.59,0-1.51-.93-2.79-2.24-3.32Z"/>
                <path class="cls-11" d="M672.68,424.76c.24-.48.39-1.02.39-1.6,0-1.3-.69-2.42-1.72-3.05.05-.24.08-.49.08-.74,0-1.98-1.61-3.59-3.59-3.59s-3.59,1.61-3.59,3.59c0,.56.14,1.08.37,1.56-1.24.56-2.11,1.81-2.11,3.27,0,.32.06.63.14.93-.95.65-1.57,1.74-1.57,2.97,0,1.98,1.61,3.59,3.59,3.59h6.67c1.98,0,3.59-1.61,3.59-3.59,0-1.51-.93-2.79-2.24-3.32Z"/>
              </g>
            </g>
            <path class="cls-7" d="M357.57,379.91h-1.53v3.68h-7.06v-6.03h-5.01l-1.84-4.6-1.33,3.78-7.27-9.67v-2.49h1.05v-.59h-1.05v-1.46h-.59v1.46h-1.05v.59h1.05v2.76l-7.07,9.4-.82-2.33v-14.95h-1.3l-3.64-21.17h.03v-3.12h.92v-.51h-.92v-1.28h-.51v1.28h-.92v.51h.92v2.69l-3.71,21.59h-1.51v24.13h-10.64v-3.68h-1.53v51.23h12.17v.1h11.68v-10.99c0-4.34,2.27-8.16,5.7-10.31.96-.6,2.01-1.08,3.13-1.39,1.12.32,2.17.79,3.13,1.39,3.43,2.16,5.7,5.97,5.7,10.31v10.99h5.23v-.1h8.69l-.1-51.23Z"/>
            <rect class="cls-7" x="-18.55" y="428.87" width="788.43" height="24"/>
          </g>
        </g>
      </g>
    </g>
  </g>
</svg>