<?xml version="1.0" encoding="UTF-8"?>
<svg xmlns="http://www.w3.org/2000/svg" version="1.1" viewBox="0 0 263.3 64.8">
  <defs>
    <style>
      .cls-1 {
        fill: #624041;
      }
    </style>
  </defs>
  <!-- Generator: Adobe Illustrator 28.7.1, SVG Export Plug-In . SVG Version: 1.2.0 Build 142)  -->
  <g>
    <g id="Layer_1">
      <g id="Layer_1-2" data-name="Layer_1">
        <g>
          <path class="cls-1" d="M15,8.6h17.9c3,0,6,.4,8.8,1.1s5.5,2.1,7.8,4c2.5,2.1,4.3,4.5,5.5,7.4,1.1,2.8,1.7,5.8,1.7,8.9s-.2,4-.7,6-1.1,3.9-1.9,5.8c-.8,1.9-1.8,3.6-2.9,5.3-1.1,1.7-2.3,3.1-3.7,4.5-3.1,3-6.5,5.1-10.2,6.3-3.7,1.1-7.8,1.7-12,1.7H2.1l.7-2.6c1.4,0,2.6,0,3.5-.3,1-.2,1.7-.5,2.4-1.1.6-.6,1.2-1.3,1.6-2.3.5-1,.9-2.4,1.4-4.1l7.6-29.2c0-.3.2-.7.4-1.2.2-.5.3-1,.5-1.6s.3-1.1.4-1.7c.1-.5.2-1,.2-1.4,0-.7-.2-1.2-.6-1.5s-.8-.6-1.4-.8-1.1-.3-1.8-.4h-3l.9-2.6h0v-.2ZM19.7,44.2c-.3,1.3-.6,2.4-.9,3.3-.2.9-.4,1.6-.5,2.1s-.2,1-.2,1.3v.8c0,1.2.2,2.1.8,2.7.5.6,1.1,1.1,1.8,1.4.7.3,1.4.5,2.2.6h1.8c2.9,0,5.5-.4,7.8-1.2,2.3-.8,4.4-1.9,6.2-3.3s3.3-3,4.7-4.8c1.3-1.8,2.4-3.7,3.2-5.7.9-2,1.5-4.1,1.9-6.2.4-2.1.6-4.1.6-6.1,0-5.5-1.5-9.8-4.5-12.8s-7-4.5-12.2-4.5-2.3.2-3.1.6-1.3,1.3-1.8,2.8l-7.8,28.9h0Z"/>
          <path class="cls-1" d="M87.6,24.5h5.5l-3.8,10.1c-.6,1.7-1.2,3.4-1.8,5.3-.6,1.9-1.1,3.7-1.6,5.5s-.8,3.4-1.1,4.8c-.3,1.4-.4,2.5-.4,3.2,0,1.3.4,1.9,1.2,1.9s1.5-.6,2.7-1.9c1.2-1.3,2.5-2.9,3.9-4.9l1.7,1.4c-1.8,3.3-3.8,5.8-6,7.6-2.1,1.8-4.2,2.7-6.2,2.7s-1.8-.4-2.3-1.2c-.6-.8-.8-2-.8-3.8s0-.9,0-1.4,0-1.2.2-2.1h-.3c-.7,1.2-1.4,2.3-2.3,3.3s-1.9,1.9-2.9,2.7c-1.1.8-2.2,1.4-3.3,1.8s-2.3.6-3.4.6c-2.2,0-4-.8-5.2-2.5s-1.9-4-1.9-7,.6-6.1,1.9-9.3c1.3-3.2,2.9-6,4.9-8.6s4.3-4.7,6.7-6.3c2.5-1.7,4.9-2.5,7.3-2.5s2.6.3,3.6,1,1.7,1.8,2.2,3.3l1.4-3.7h.1ZM80.8,27.2c-1.7,0-3.4.8-5.2,2.3s-3.4,3.5-4.8,5.8-2.6,4.8-3.6,7.5c-.9,2.7-1.4,5.1-1.4,7.4s.3,2.8,1,3.8c.7.9,1.6,1.4,2.7,1.4s2.1-.4,3.2-1.2,2.2-1.9,3.2-3.2,2-2.9,2.9-4.6c.9-1.7,1.7-3.5,2.4-5.3.7-1.8,1.2-3.6,1.7-5.4.4-1.8.6-3.3.6-4.8s-.2-2-.7-2.7-1.1-1-2-1Z"/>
          <path class="cls-1" d="M124.5,27.2c-1.1,0-2.2.5-3.6,1.6-1.3,1.1-2.7,2.5-4.1,4.3-1.4,1.8-2.7,3.8-4,6.1s-2.3,4.6-3.2,7l-4.9,13.2h-5.8l4.9-15.1c.8-2.4,1.4-4.5,2-6.2.5-1.7,1-3.2,1.3-4.3s.6-2.1.7-2.8c0-.7.2-1.3.2-1.8,0-1.2-.4-1.8-1.1-1.8s-1.1.3-1.7.9c-.7.6-1.3,1.4-2,2.4s-1.3,2.1-1.9,3.4c-.6,1.3-1.1,2.6-1.6,3.9l-2-1c1.5-4.5,3.3-7.9,5.2-10,1.9-2.2,4.1-3.2,6.6-3.2s2.4.4,3,1.2.9,2.1.9,4-.4,4.2-1.1,6l.2.2c2.2-4,4.5-6.8,6.8-8.7s4.8-2.7,7.6-2.7,3.4.5,4.4,1.4,1.5,2.2,1.5,4,0,1.2-.2,1.9-.3,1.6-.6,2.5-.6,2.2-1.1,3.5c-.5,1.4-1,3-1.7,5-1,3-1.9,5.5-2.5,7.5s-1,3.4-1,4.3.2,1,.7,1,1.5-.5,2.7-1.5,2.8-2.6,4.8-4.9l1.7.9c-.7,1.3-1.6,2.6-2.7,3.9-1.1,1.2-2.3,2.4-3.5,3.4s-2.4,1.8-3.6,2.4c-1.2.6-2.2.9-3.1.9s-2-.5-2.6-1.4c-.6-1-1-2.2-1-3.8s0-1.2.2-1.9c0-.6.3-1.6.7-2.7.4-1.2.9-2.8,1.6-4.8s1.6-4.7,2.8-7.9c.4-1.1.7-2.1,1-2.9.3-.8.5-1.5.6-2.1,0-.6.3-1.1.3-1.5s0-.9,0-1.2c0-1.6-.6-2.4-1.8-2.4h0v-.2Z"/>
          <path class="cls-1" d="M146.5,37.7c.6-1.7,1.1-3.1,1.3-4.2.3-1.1.4-1.9.4-2.5s-.1-1-.3-1.2-.4-.3-.6-.3c-.5,0-1,.2-1.6.7s-1.1,1-1.7,1.6c-.6.6-1.1,1.2-1.5,1.8-.4.6-.8,1.1-.9,1.4l-1.9-1.2c.5-1,1.3-2,2.2-3.2s2-2.3,3.2-3.3,2.4-1.9,3.7-2.5,2.5-1,3.6-1,1.9.3,2.5,1c.6.6.8,1.8.8,3.5s-.4,3-1.2,5.1c-.8,2.2-1.8,4.9-3,8.3l-2.4,6.7c0,.2-.2.6-.4,1-.2.5-.3.9-.5,1.4-.1.5-.3,1-.4,1.5-.1.5-.2.9-.2,1.2s.1.8.3,1.1.6.5,1.1.5,1.3-.3,2.1-.8c.7-.6,1.4-1.2,2.1-1.9s1.2-1.5,1.8-2.3.9-1.4,1.2-1.8l2,1.1c-.5,1.1-1.2,2.2-2.1,3.5s-1.9,2.4-3.1,3.5c-1.1,1.1-2.4,2-3.8,2.7-1.4.7-2.8,1.1-4.2,1.1s-2.2-.3-2.9-1c-.6-.7-1-1.8-1-3.3s.2-2.7.6-4.1,1-3.3,1.8-5.6l3-8.4h0ZM156.2,13c-1.1,0-2.1-.4-2.9-1.1s-1.2-1.7-1.2-2.9.4-2.2,1.2-3,1.8-1.2,2.9-1.2,2.2.4,3,1.2c.8.8,1.2,1.8,1.2,3s-.4,2.1-1.2,2.9c-.8.8-1.8,1.2-3,1.2h0Z"/>
          <path class="cls-1" d="M185,50.7c-3.8,6.3-8.5,9.4-14.1,9.4s-5.4-.9-7-2.8-2.4-4.5-2.4-7.9.6-6.1,1.9-9.1,2.9-5.8,4.9-8.2c2-2.4,4.3-4.4,6.8-5.9s5-2.3,7.5-2.3,3.8.5,5.2,1.6c1.3,1.1,2,2.5,2,4.1s-.6,3.1-1.7,4.8c-1.1,1.6-2.7,3.2-4.6,4.6-2,1.4-4.2,2.8-6.9,4-2.6,1.2-5.4,2.1-8.4,2.8,0,.6-.2,1.2-.2,1.8v1.8c0,4.8,1.7,7.2,5.1,7.2s3.3-.6,5.1-1.9c1.7-1.3,3.4-3,4.9-5.3l2.1,1.4h-.2ZM181.3,26.9c-1.1,0-2.3.4-3.6,1.3s-2.4,2.1-3.5,3.5-2.1,3.2-3.1,5c-.9,1.9-1.7,3.8-2.2,5.9,2.1-.6,4.1-1.3,5.9-2.2,1.8-.9,3.4-2,4.6-3.1s2.3-2.4,3.1-3.7,1.1-2.6,1.1-3.9-.8-2.8-2.3-2.8h0Z"/>
          <path class="cls-1" d="M202.7,13.8c.2-.8.4-1.6.7-2.4.2-.8.3-1.4.3-1.8,0-1.5-1.7-2.3-5-2.3l.5-2,12.1-.6-11.8,43.4c-.4,1.2-.6,2.2-.8,3.1-.2.9-.3,1.7-.3,2.3s.1.8.3,1.1.6.5,1.1.5,1.4-.3,2.2-.9c.8-.6,1.6-1.3,2.3-2.1s1.4-1.7,1.9-2.5c.6-.9,1-1.5,1.2-2l2,1.1c-.7,1.5-1.5,2.9-2.6,4.3-1.1,1.4-2.2,2.6-3.4,3.7-1.2,1.1-2.4,1.9-3.6,2.5s-2.3,1-3.3,1c-1.5,0-2.7-.3-3.4-1s-1.1-1.8-1.1-3.3.1-2.1.4-3.6c.3-1.5.7-3.5,1.4-6.1l8.8-32.3h.1Z"/>
          <path class="cls-1" d="M223.4,13.8c.2-.8.4-1.6.7-2.4.2-.8.3-1.4.3-1.8,0-1.5-1.7-2.3-5-2.3l.5-2,12.1-.6-11.8,43.4c-.4,1.2-.6,2.2-.8,3.1-.2.9-.3,1.7-.3,2.3s.1.8.3,1.1.6.5,1.1.5,1.4-.3,2.2-.9c.8-.6,1.6-1.3,2.3-2.1s1.4-1.7,1.9-2.5c.6-.9,1-1.5,1.2-2l2,1.1c-.7,1.5-1.5,2.9-2.6,4.3-1.1,1.4-2.2,2.6-3.4,3.7-1.2,1.1-2.4,1.9-3.6,2.5s-2.3,1-3.3,1c-1.5,0-2.7-.3-3.4-1s-1.1-1.8-1.1-3.3.1-2.1.4-3.6c.3-1.5.7-3.5,1.4-6.1l8.8-32.3h.1Z"/>
          <path class="cls-1" d="M256.4,50.7c-3.8,6.3-8.5,9.4-14.1,9.4s-5.4-.9-7-2.8-2.4-4.5-2.4-7.9.6-6.1,1.9-9.1,2.9-5.8,4.9-8.2c2-2.4,4.3-4.4,6.8-5.9s5-2.3,7.5-2.3,3.8.5,5.2,1.6c1.3,1.1,2,2.5,2,4.1s-.6,3.1-1.7,4.8c-1.1,1.6-2.7,3.2-4.6,4.6-2,1.4-4.2,2.8-6.9,4-2.6,1.2-5.4,2.1-8.4,2.8,0,.6-.2,1.2-.2,1.8v1.8c0,4.8,1.7,7.2,5.1,7.2s3.3-.6,5-1.9c1.7-1.3,3.4-3,4.9-5.3l2.1,1.4h0ZM252.7,26.9c-1.1,0-2.3.4-3.6,1.3s-2.4,2.1-3.5,3.5-2.1,3.2-3.1,5c-.9,1.9-1.7,3.8-2.2,5.9,2.1-.6,4.1-1.3,5.9-2.2,1.8-.9,3.4-2,4.6-3.1s2.3-2.4,3.1-3.7,1.1-2.6,1.1-3.9-.8-2.8-2.3-2.8Z"/>
        </g>
      </g>
    </g>
  </g>
</svg>