<?xml version="1.0" encoding="UTF-8"?>
<svg id="Layer_1" xmlns="http://www.w3.org/2000/svg" viewBox="0 0 295.87 149.26">
  <defs>
    <style>
      .cls-1 {
        fill: #231f20;
      }
    </style>
  </defs>
  <path class="cls-1" d="M28.45,40.49h17.89c3.04,0,5.98.36,8.84,1.09,2.86.73,5.46,2.06,7.79,3.99,2.51,2.07,4.33,4.52,5.48,7.36,1.14,2.84,1.72,5.8,1.72,8.88,0,1.98-.23,3.97-.69,5.97-.46,2-1.1,3.94-1.91,5.81-.81,1.87-1.78,3.63-2.9,5.28-1.12,1.65-2.34,3.14-3.66,4.46-3.08,3.04-6.49,5.13-10.23,6.27-3.74,1.14-7.75,1.72-12.01,1.72H15.64l.73-2.64c1.41,0,2.58-.09,3.53-.26.95-.17,1.74-.54,2.38-1.09.64-.55,1.19-1.33,1.65-2.34.46-1.01.91-2.38,1.35-4.09l7.59-29.17c.09-.31.21-.7.36-1.19.15-.48.32-1.01.5-1.58.18-.57.32-1.12.43-1.65.11-.53.17-.99.17-1.39,0-.66-.19-1.17-.56-1.52-.37-.35-.84-.63-1.39-.83-.55-.2-1.15-.32-1.78-.36-.64-.04-1.22-.07-1.75-.07h-1.25l.86-2.64ZM33.2,76.07c-.35,1.32-.64,2.41-.86,3.27-.22.86-.39,1.56-.5,2.11-.11.55-.19.98-.23,1.29-.04.31-.07.57-.07.79,0,1.19.25,2.1.76,2.74.5.64,1.11,1.12,1.82,1.45.7.33,1.43.53,2.18.59.75.07,1.36.1,1.85.1,2.86,0,5.46-.4,7.79-1.19,2.33-.79,4.4-1.88,6.2-3.27,1.8-1.39,3.35-2.98,4.65-4.78,1.3-1.8,2.38-3.72,3.23-5.74.86-2.02,1.49-4.08,1.88-6.17.4-2.09.59-4.12.59-6.11,0-5.54-1.49-9.82-4.46-12.84-2.97-3.01-7.05-4.52-12.24-4.52-1.28,0-2.3.19-3.07.56-.77.37-1.35,1.31-1.75,2.8l-7.79,28.91Z"/>
  <path class="cls-1" d="M101.05,56.33h5.48l-3.76,10.1c-.62,1.67-1.22,3.45-1.81,5.35-.59,1.89-1.12,3.72-1.58,5.48s-.83,3.37-1.09,4.82c-.26,1.45-.4,2.53-.4,3.23,0,1.28.42,1.91,1.25,1.91.62,0,1.51-.64,2.67-1.91,1.17-1.28,2.48-2.93,3.93-4.95l1.72,1.39c-1.85,3.26-3.84,5.78-5.97,7.56-2.13,1.78-4.19,2.67-6.17,2.67-1.01,0-1.79-.39-2.34-1.16-.55-.77-.83-2.03-.83-3.79,0-.4.01-.86.03-1.39.02-.53.08-1.23.17-2.11l-.26-.07c-.66,1.23-1.44,2.37-2.34,3.4-.9,1.03-1.88,1.94-2.94,2.71-1.06.77-2.16,1.36-3.3,1.78-1.14.42-2.27.63-3.37.63-2.24,0-3.99-.85-5.25-2.54-1.25-1.69-1.88-4.04-1.88-7.03s.64-6.14,1.91-9.31c1.28-3.17,2.93-6.04,4.95-8.61,2.02-2.57,4.27-4.69,6.73-6.34,2.46-1.65,4.88-2.47,7.26-2.47,1.45,0,2.64.34,3.56,1.02.92.68,1.67,1.79,2.24,3.33l1.39-3.7ZM94.25,59.1c-1.67,0-3.4.77-5.18,2.31-1.78,1.54-3.4,3.47-4.85,5.78s-2.64,4.8-3.56,7.46c-.92,2.66-1.39,5.14-1.39,7.42,0,1.58.33,2.85.99,3.79.66.95,1.56,1.42,2.71,1.42,1.01,0,2.07-.41,3.17-1.22,1.1-.81,2.17-1.89,3.2-3.23,1.03-1.34,2.01-2.87,2.94-4.59.92-1.72,1.74-3.49,2.44-5.31.7-1.83,1.25-3.62,1.65-5.38.4-1.76.59-3.34.59-4.75,0-1.14-.24-2.05-.73-2.71s-1.14-.99-1.98-.99Z"/>
  <path class="cls-1" d="M138,59.1c-1.06,0-2.25.54-3.6,1.62-1.34,1.08-2.71,2.51-4.09,4.29-1.39,1.78-2.72,3.82-3.99,6.1-1.28,2.29-2.35,4.62-3.23,7l-4.88,13.2h-5.81l4.88-15.11c.79-2.42,1.45-4.49,1.98-6.2.53-1.72.96-3.16,1.29-4.32s.56-2.11.69-2.84c.13-.73.2-1.31.2-1.75,0-1.19-.38-1.78-1.12-1.78-.49,0-1.06.31-1.72.92-.66.62-1.33,1.42-2.01,2.41-.68.99-1.33,2.12-1.95,3.4-.62,1.28-1.14,2.57-1.58,3.89l-1.98-.99c1.54-4.53,3.27-7.88,5.18-10.03,1.91-2.16,4.1-3.23,6.57-3.23,1.41,0,2.41.4,3,1.19s.89,2.13.89,4.03c0,2.24-.37,4.25-1.12,6.01l.2.2c2.24-3.96,4.52-6.85,6.83-8.68,2.31-1.83,4.83-2.74,7.56-2.74,1.94,0,3.41.46,4.42,1.39,1.01.92,1.52,2.24,1.52,3.96,0,.57-.06,1.21-.17,1.91-.11.7-.3,1.55-.56,2.54-.26.99-.63,2.17-1.09,3.53-.46,1.36-1.02,3.04-1.68,5.02-1.01,2.99-1.85,5.5-2.51,7.52s-.99,3.45-.99,4.29c0,.66.22.99.66.99.62,0,1.52-.5,2.71-1.52,1.19-1.01,2.79-2.64,4.82-4.88l1.72.92c-.71,1.32-1.62,2.61-2.74,3.86-1.12,1.25-2.29,2.39-3.5,3.4-1.21,1.01-2.41,1.83-3.6,2.44-1.19.62-2.22.92-3.1.92-1.1,0-1.97-.48-2.61-1.45-.64-.97-.96-2.24-.96-3.83,0-.62.05-1.24.17-1.88.11-.64.34-1.55.69-2.74.35-1.19.87-2.78,1.55-4.79.68-2,1.62-4.65,2.8-7.95.4-1.14.73-2.11.99-2.9.26-.79.47-1.49.63-2.08.15-.59.26-1.11.33-1.55.07-.44.1-.86.1-1.25,0-1.63-.59-2.44-1.78-2.44Z"/>
  <path class="cls-1" d="M159.98,69.53c.62-1.72,1.06-3.1,1.32-4.16.26-1.06.4-1.89.4-2.51s-.1-1.02-.3-1.22c-.2-.2-.41-.3-.63-.3-.49,0-1.01.23-1.58.69-.57.46-1.14,1-1.72,1.62-.57.62-1.08,1.23-1.52,1.85-.44.62-.75,1.1-.92,1.45l-1.91-1.19c.53-.97,1.26-2.05,2.21-3.23.95-1.19,2.01-2.29,3.2-3.3,1.19-1.01,2.42-1.86,3.7-2.54,1.28-.68,2.49-1.02,3.63-1.02s1.92.32,2.48.96c.55.64.83,1.79.83,3.46,0,1.28-.39,2.99-1.16,5.15-.77,2.16-1.77,4.93-3,8.32l-2.44,6.67c-.09.22-.21.56-.36,1.02-.16.46-.31.95-.46,1.45-.15.51-.29,1-.4,1.49-.11.48-.17.88-.17,1.19,0,.4.11.75.33,1.06.22.31.57.46,1.06.46.66,0,1.34-.27,2.05-.83.7-.55,1.39-1.2,2.05-1.95.66-.75,1.25-1.51,1.78-2.28.53-.77.92-1.38,1.19-1.82l1.98,1.12c-.53,1.06-1.24,2.22-2.14,3.5-.9,1.28-1.93,2.45-3.07,3.53-1.14,1.08-2.4,1.98-3.76,2.71-1.36.73-2.77,1.09-4.22,1.09-1.28,0-2.23-.33-2.87-.99-.64-.66-.96-1.76-.96-3.3,0-1.28.21-2.65.63-4.12.42-1.47,1.02-3.33,1.81-5.58l2.97-8.45ZM169.68,44.85c-1.1,0-2.06-.37-2.87-1.12-.81-.75-1.22-1.72-1.22-2.9s.4-2.2,1.19-3.04c.79-.83,1.76-1.25,2.9-1.25,1.23,0,2.24.42,3.04,1.25.79.84,1.19,1.83,1.19,2.97s-.42,2.11-1.25,2.9c-.84.79-1.83,1.19-2.97,1.19Z"/>
  <path class="cls-1" d="M198.53,82.53c-3.83,6.29-8.54,9.44-14.12,9.44-3.04,0-5.37-.93-7-2.8-1.63-1.87-2.44-4.52-2.44-7.95,0-3.04.63-6.07,1.88-9.11s2.89-5.78,4.92-8.22c2.02-2.44,4.29-4.42,6.8-5.94,2.51-1.52,5.02-2.28,7.52-2.28,2.11,0,3.84.54,5.18,1.62,1.34,1.08,2.01,2.45,2.01,4.12,0,1.54-.57,3.12-1.72,4.75-1.15,1.63-2.7,3.17-4.65,4.62-1.96,1.45-4.25,2.77-6.86,3.96-2.62,1.19-5.4,2.11-8.35,2.77-.09.62-.16,1.22-.2,1.82-.04.59-.07,1.2-.07,1.81,0,4.8,1.69,7.19,5.08,7.19,1.63,0,3.31-.64,5.05-1.91,1.74-1.28,3.35-3.04,4.85-5.28l2.11,1.39ZM194.76,58.77c-1.14,0-2.33.44-3.56,1.32-1.23.88-2.41,2.06-3.53,3.53s-2.14,3.16-3.07,5.05c-.92,1.89-1.67,3.85-2.24,5.87,2.11-.57,4.07-1.32,5.87-2.24,1.8-.92,3.35-1.97,4.65-3.13s2.32-2.4,3.07-3.7c.75-1.3,1.12-2.61,1.12-3.93,0-1.85-.77-2.77-2.31-2.77Z"/>
  <path class="cls-1" d="M216.21,45.71c.22-.79.44-1.59.66-2.41.22-.81.33-1.42.33-1.82,0-1.54-1.67-2.31-5.02-2.31l.53-1.98,12.08-.59-11.81,43.36c-.35,1.19-.62,2.23-.79,3.13-.18.9-.26,1.66-.26,2.28,0,.4.11.75.33,1.06.22.31.57.46,1.06.46.7,0,1.45-.3,2.24-.89.79-.59,1.55-1.3,2.28-2.11.73-.81,1.37-1.65,1.95-2.51.57-.86.99-1.53,1.25-2.01l1.98,1.12c-.66,1.5-1.52,2.94-2.57,4.32-1.06,1.39-2.18,2.61-3.37,3.66-1.19,1.06-2.39,1.9-3.6,2.54-1.21.64-2.32.96-3.33.96-1.54,0-2.67-.33-3.4-.99-.73-.66-1.09-1.76-1.09-3.3,0-.88.13-2.07.4-3.56.26-1.5.73-3.54,1.39-6.14l8.78-32.27Z"/>
  <path class="cls-1" d="M236.87,45.71c.22-.79.44-1.59.66-2.41.22-.81.33-1.42.33-1.82,0-1.54-1.67-2.31-5.02-2.31l.53-1.98,12.08-.59-11.81,43.36c-.35,1.19-.62,2.23-.79,3.13-.18.9-.26,1.66-.26,2.28,0,.4.11.75.33,1.06.22.31.57.46,1.06.46.7,0,1.45-.3,2.24-.89.79-.59,1.55-1.3,2.28-2.11.73-.81,1.37-1.65,1.95-2.51.57-.86.99-1.53,1.25-2.01l1.98,1.12c-.66,1.5-1.52,2.94-2.57,4.32-1.06,1.39-2.18,2.61-3.37,3.66-1.19,1.06-2.39,1.9-3.6,2.54-1.21.64-2.32.96-3.33.96-1.54,0-2.67-.33-3.4-.99-.73-.66-1.09-1.76-1.09-3.3,0-.88.13-2.07.4-3.56.26-1.5.73-3.54,1.39-6.14l8.78-32.27Z"/>
  <path class="cls-1" d="M269.94,82.53c-3.83,6.29-8.54,9.44-14.12,9.44-3.04,0-5.37-.93-7-2.8-1.63-1.87-2.44-4.52-2.44-7.95,0-3.04.63-6.07,1.88-9.11s2.89-5.78,4.92-8.22c2.02-2.44,4.29-4.42,6.8-5.94,2.51-1.52,5.02-2.28,7.52-2.28,2.11,0,3.84.54,5.18,1.62,1.34,1.08,2.01,2.45,2.01,4.12,0,1.54-.57,3.12-1.72,4.75-1.15,1.63-2.7,3.17-4.65,4.62-1.96,1.45-4.25,2.77-6.86,3.96-2.62,1.19-5.4,2.11-8.35,2.77-.09.62-.16,1.22-.2,1.82-.04.59-.07,1.2-.07,1.81,0,4.8,1.69,7.19,5.08,7.19,1.63,0,3.31-.64,5.05-1.91,1.74-1.28,3.35-3.04,4.85-5.28l2.11,1.39ZM266.17,58.77c-1.14,0-2.33.44-3.56,1.32-1.23.88-2.41,2.06-3.53,3.53s-2.14,3.16-3.07,5.05c-.92,1.89-1.67,3.85-2.24,5.87,2.11-.57,4.07-1.32,5.87-2.24,1.8-.92,3.35-1.97,4.65-3.13s2.32-2.4,3.07-3.7c.75-1.3,1.12-2.61,1.12-3.93,0-1.85-.77-2.77-2.31-2.77Z"/>
</svg>